<mxfile host="app.diagrams.net" modified="2023-11-23T11:02:50.074Z" agent="Mozilla/5.0 (Windows NT 10.0; Win64; x64) AppleWebKit/537.36 (KHTML, like Gecko) Chrome/119.0.0.0 Safari/537.36 Edg/119.0.0.0" etag="QYa8zR8dT3Jh9AsQVzSY" version="22.1.3" type="github">
  <diagram name="Page-1" id="GqvJpSzDqaIw64ddLkh0">
    <mxGraphModel dx="1737" dy="975" grid="1" gridSize="10" guides="1" tooltips="1" connect="1" arrows="1" fold="1" page="1" pageScale="1" pageWidth="827" pageHeight="1169" math="0" shadow="0">
      <root>
        <mxCell id="0" />
        <mxCell id="1" parent="0" />
        <mxCell id="IKH_ZbC5_HJtovpVhx3s-47" style="edgeStyle=orthogonalEdgeStyle;rounded=0;orthogonalLoop=1;jettySize=auto;html=1;exitX=1;exitY=0.5;exitDx=0;exitDy=0;" edge="1" parent="1" source="IKH_ZbC5_HJtovpVhx3s-1">
          <mxGeometry relative="1" as="geometry">
            <mxPoint x="340" y="400" as="targetPoint" />
          </mxGeometry>
        </mxCell>
        <mxCell id="IKH_ZbC5_HJtovpVhx3s-1" value="Khách hàng" style="rounded=1;whiteSpace=wrap;html=1;" vertex="1" parent="1">
          <mxGeometry x="80" y="280" width="120" height="40" as="geometry" />
        </mxCell>
        <mxCell id="IKH_ZbC5_HJtovpVhx3s-2" value="" style="endArrow=none;dashed=1;html=1;rounded=0;entryX=0.25;entryY=1;entryDx=0;entryDy=0;" edge="1" parent="1" target="IKH_ZbC5_HJtovpVhx3s-1">
          <mxGeometry width="50" height="50" relative="1" as="geometry">
            <mxPoint x="110" y="1040" as="sourcePoint" />
            <mxPoint x="280" y="460" as="targetPoint" />
          </mxGeometry>
        </mxCell>
        <mxCell id="IKH_ZbC5_HJtovpVhx3s-3" value="" style="endArrow=none;dashed=1;html=1;rounded=0;entryX=0.25;entryY=1;entryDx=0;entryDy=0;" edge="1" parent="1">
          <mxGeometry width="50" height="50" relative="1" as="geometry">
            <mxPoint x="120" y="360" as="sourcePoint" />
            <mxPoint x="120" y="320" as="targetPoint" />
            <Array as="points">
              <mxPoint x="120" y="350" />
            </Array>
          </mxGeometry>
        </mxCell>
        <mxCell id="IKH_ZbC5_HJtovpVhx3s-4" value="" style="endArrow=none;dashed=1;html=1;dashPattern=1 3;strokeWidth=2;rounded=0;" edge="1" parent="1" source="IKH_ZbC5_HJtovpVhx3s-5">
          <mxGeometry width="50" height="50" relative="1" as="geometry">
            <mxPoint x="120" y="360" as="sourcePoint" />
            <mxPoint x="200" y="360" as="targetPoint" />
          </mxGeometry>
        </mxCell>
        <mxCell id="IKH_ZbC5_HJtovpVhx3s-10" style="edgeStyle=orthogonalEdgeStyle;rounded=0;orthogonalLoop=1;jettySize=auto;html=1;exitX=0.5;exitY=1;exitDx=0;exitDy=0;entryX=0.5;entryY=0;entryDx=0;entryDy=0;" edge="1" parent="1" source="IKH_ZbC5_HJtovpVhx3s-8" target="IKH_ZbC5_HJtovpVhx3s-9">
          <mxGeometry relative="1" as="geometry" />
        </mxCell>
        <mxCell id="IKH_ZbC5_HJtovpVhx3s-8" value="Xem chi tiết sản phẩm" style="rounded=1;whiteSpace=wrap;html=1;" vertex="1" parent="1">
          <mxGeometry x="120" y="400" width="120" height="40" as="geometry" />
        </mxCell>
        <mxCell id="IKH_ZbC5_HJtovpVhx3s-18" style="edgeStyle=orthogonalEdgeStyle;rounded=0;orthogonalLoop=1;jettySize=auto;html=1;exitX=0.5;exitY=1;exitDx=0;exitDy=0;entryX=0.5;entryY=0;entryDx=0;entryDy=0;" edge="1" parent="1" source="IKH_ZbC5_HJtovpVhx3s-9" target="IKH_ZbC5_HJtovpVhx3s-17">
          <mxGeometry relative="1" as="geometry" />
        </mxCell>
        <mxCell id="IKH_ZbC5_HJtovpVhx3s-9" value="Thêm sản phẩm vào giỏ hàng" style="rounded=1;whiteSpace=wrap;html=1;" vertex="1" parent="1">
          <mxGeometry x="120" y="480" width="120" height="40" as="geometry" />
        </mxCell>
        <mxCell id="IKH_ZbC5_HJtovpVhx3s-14" value="" style="endArrow=none;dashed=1;html=1;dashPattern=1 3;strokeWidth=2;rounded=0;" edge="1" parent="1" target="IKH_ZbC5_HJtovpVhx3s-5">
          <mxGeometry width="50" height="50" relative="1" as="geometry">
            <mxPoint x="120" y="360" as="sourcePoint" />
            <mxPoint x="200" y="360" as="targetPoint" />
          </mxGeometry>
        </mxCell>
        <mxCell id="IKH_ZbC5_HJtovpVhx3s-5" value="xem sản phẩm" style="text;html=1;align=center;verticalAlign=middle;resizable=0;points=[];autosize=1;strokeColor=none;fillColor=none;" vertex="1" parent="1">
          <mxGeometry x="120" y="330" width="100" height="30" as="geometry" />
        </mxCell>
        <mxCell id="IKH_ZbC5_HJtovpVhx3s-15" style="edgeStyle=orthogonalEdgeStyle;rounded=0;orthogonalLoop=1;jettySize=auto;html=1;entryX=0.5;entryY=0;entryDx=0;entryDy=0;" edge="1" parent="1" source="IKH_ZbC5_HJtovpVhx3s-5" target="IKH_ZbC5_HJtovpVhx3s-8">
          <mxGeometry relative="1" as="geometry">
            <Array as="points">
              <mxPoint x="180" y="380" />
              <mxPoint x="180" y="380" />
            </Array>
          </mxGeometry>
        </mxCell>
        <mxCell id="IKH_ZbC5_HJtovpVhx3s-16" value="" style="endArrow=none;dashed=1;html=1;dashPattern=1 3;strokeWidth=2;rounded=0;exitX=0.007;exitY=1.089;exitDx=0;exitDy=0;exitPerimeter=0;" edge="1" parent="1">
          <mxGeometry width="50" height="50" relative="1" as="geometry">
            <mxPoint x="120.70000000000005" y="360.74999999999994" as="sourcePoint" />
            <mxPoint x="760" y="360" as="targetPoint" />
          </mxGeometry>
        </mxCell>
        <mxCell id="IKH_ZbC5_HJtovpVhx3s-20" style="edgeStyle=orthogonalEdgeStyle;rounded=0;orthogonalLoop=1;jettySize=auto;html=1;exitX=0.5;exitY=1;exitDx=0;exitDy=0;" edge="1" parent="1" source="IKH_ZbC5_HJtovpVhx3s-17" target="IKH_ZbC5_HJtovpVhx3s-19">
          <mxGeometry relative="1" as="geometry" />
        </mxCell>
        <mxCell id="IKH_ZbC5_HJtovpVhx3s-43" style="edgeStyle=orthogonalEdgeStyle;rounded=0;orthogonalLoop=1;jettySize=auto;html=1;exitX=1;exitY=0.5;exitDx=0;exitDy=0;entryX=0;entryY=0.5;entryDx=0;entryDy=0;" edge="1" parent="1" source="IKH_ZbC5_HJtovpVhx3s-17" target="IKH_ZbC5_HJtovpVhx3s-42">
          <mxGeometry relative="1" as="geometry" />
        </mxCell>
        <mxCell id="IKH_ZbC5_HJtovpVhx3s-17" value="Xem giỏ hàng" style="rounded=1;whiteSpace=wrap;html=1;" vertex="1" parent="1">
          <mxGeometry x="120" y="560" width="120" height="40" as="geometry" />
        </mxCell>
        <mxCell id="IKH_ZbC5_HJtovpVhx3s-22" style="edgeStyle=orthogonalEdgeStyle;rounded=0;orthogonalLoop=1;jettySize=auto;html=1;exitX=0.5;exitY=1;exitDx=0;exitDy=0;entryX=0.5;entryY=0;entryDx=0;entryDy=0;" edge="1" parent="1" source="IKH_ZbC5_HJtovpVhx3s-19" target="IKH_ZbC5_HJtovpVhx3s-21">
          <mxGeometry relative="1" as="geometry" />
        </mxCell>
        <mxCell id="IKH_ZbC5_HJtovpVhx3s-19" value="Đặt hàng" style="rounded=1;whiteSpace=wrap;html=1;" vertex="1" parent="1">
          <mxGeometry x="120" y="640" width="120" height="40" as="geometry" />
        </mxCell>
        <mxCell id="IKH_ZbC5_HJtovpVhx3s-25" style="edgeStyle=orthogonalEdgeStyle;rounded=0;orthogonalLoop=1;jettySize=auto;html=1;exitX=0.5;exitY=1;exitDx=0;exitDy=0;entryX=0.5;entryY=0;entryDx=0;entryDy=0;" edge="1" parent="1" source="IKH_ZbC5_HJtovpVhx3s-21" target="IKH_ZbC5_HJtovpVhx3s-23">
          <mxGeometry relative="1" as="geometry" />
        </mxCell>
        <mxCell id="IKH_ZbC5_HJtovpVhx3s-21" value="Chọn phương thức thanh toán" style="rounded=1;whiteSpace=wrap;html=1;" vertex="1" parent="1">
          <mxGeometry x="120" y="720" width="120" height="40" as="geometry" />
        </mxCell>
        <mxCell id="IKH_ZbC5_HJtovpVhx3s-26" style="edgeStyle=orthogonalEdgeStyle;rounded=0;orthogonalLoop=1;jettySize=auto;html=1;exitX=0.5;exitY=1;exitDx=0;exitDy=0;entryX=0.5;entryY=0;entryDx=0;entryDy=0;" edge="1" parent="1" source="IKH_ZbC5_HJtovpVhx3s-23" target="IKH_ZbC5_HJtovpVhx3s-24">
          <mxGeometry relative="1" as="geometry" />
        </mxCell>
        <mxCell id="IKH_ZbC5_HJtovpVhx3s-23" value="Nhập thông tin giao hàng" style="rounded=1;whiteSpace=wrap;html=1;" vertex="1" parent="1">
          <mxGeometry x="120" y="800" width="120" height="40" as="geometry" />
        </mxCell>
        <mxCell id="IKH_ZbC5_HJtovpVhx3s-28" style="edgeStyle=orthogonalEdgeStyle;rounded=0;orthogonalLoop=1;jettySize=auto;html=1;exitX=0.5;exitY=1;exitDx=0;exitDy=0;entryX=0.5;entryY=0;entryDx=0;entryDy=0;" edge="1" parent="1" source="IKH_ZbC5_HJtovpVhx3s-24" target="IKH_ZbC5_HJtovpVhx3s-27">
          <mxGeometry relative="1" as="geometry" />
        </mxCell>
        <mxCell id="IKH_ZbC5_HJtovpVhx3s-24" value="Xem xác nhận đơn hàng" style="rounded=1;whiteSpace=wrap;html=1;" vertex="1" parent="1">
          <mxGeometry x="120" y="880" width="120" height="40" as="geometry" />
        </mxCell>
        <mxCell id="IKH_ZbC5_HJtovpVhx3s-32" style="edgeStyle=orthogonalEdgeStyle;rounded=0;orthogonalLoop=1;jettySize=auto;html=1;exitX=1;exitY=0.5;exitDx=0;exitDy=0;entryX=0;entryY=0.5;entryDx=0;entryDy=0;" edge="1" parent="1" source="IKH_ZbC5_HJtovpVhx3s-27" target="IKH_ZbC5_HJtovpVhx3s-30">
          <mxGeometry relative="1" as="geometry" />
        </mxCell>
        <mxCell id="IKH_ZbC5_HJtovpVhx3s-27" value="Thanh toán" style="rounded=1;whiteSpace=wrap;html=1;" vertex="1" parent="1">
          <mxGeometry x="120" y="960" width="120" height="40" as="geometry" />
        </mxCell>
        <mxCell id="IKH_ZbC5_HJtovpVhx3s-29" value="" style="endArrow=none;dashed=1;html=1;rounded=0;" edge="1" parent="1">
          <mxGeometry width="50" height="50" relative="1" as="geometry">
            <mxPoint x="110" y="1040" as="sourcePoint" />
            <mxPoint x="760" y="1040" as="targetPoint" />
          </mxGeometry>
        </mxCell>
        <mxCell id="IKH_ZbC5_HJtovpVhx3s-33" style="edgeStyle=orthogonalEdgeStyle;rounded=0;orthogonalLoop=1;jettySize=auto;html=1;exitX=0.5;exitY=0;exitDx=0;exitDy=0;entryX=0.5;entryY=1;entryDx=0;entryDy=0;" edge="1" parent="1" source="IKH_ZbC5_HJtovpVhx3s-30" target="IKH_ZbC5_HJtovpVhx3s-31">
          <mxGeometry relative="1" as="geometry" />
        </mxCell>
        <mxCell id="IKH_ZbC5_HJtovpVhx3s-30" value="Theo dõi đơn hàng" style="rounded=1;whiteSpace=wrap;html=1;" vertex="1" parent="1">
          <mxGeometry x="280" y="960" width="120" height="40" as="geometry" />
        </mxCell>
        <mxCell id="IKH_ZbC5_HJtovpVhx3s-38" style="edgeStyle=orthogonalEdgeStyle;rounded=0;orthogonalLoop=1;jettySize=auto;html=1;exitX=1;exitY=0.5;exitDx=0;exitDy=0;entryX=0;entryY=0.5;entryDx=0;entryDy=0;" edge="1" parent="1" source="IKH_ZbC5_HJtovpVhx3s-31" target="IKH_ZbC5_HJtovpVhx3s-37">
          <mxGeometry relative="1" as="geometry" />
        </mxCell>
        <mxCell id="IKH_ZbC5_HJtovpVhx3s-41" style="edgeStyle=orthogonalEdgeStyle;rounded=0;orthogonalLoop=1;jettySize=auto;html=1;exitX=0.5;exitY=0;exitDx=0;exitDy=0;entryX=0.5;entryY=1;entryDx=0;entryDy=0;" edge="1" parent="1" source="IKH_ZbC5_HJtovpVhx3s-31" target="IKH_ZbC5_HJtovpVhx3s-40">
          <mxGeometry relative="1" as="geometry" />
        </mxCell>
        <mxCell id="IKH_ZbC5_HJtovpVhx3s-31" value="Đánh giá sản phẩm" style="rounded=1;whiteSpace=wrap;html=1;" vertex="1" parent="1">
          <mxGeometry x="280" y="880" width="120" height="40" as="geometry" />
        </mxCell>
        <mxCell id="IKH_ZbC5_HJtovpVhx3s-34" value="" style="endArrow=none;dashed=1;html=1;rounded=0;" edge="1" parent="1">
          <mxGeometry width="50" height="50" relative="1" as="geometry">
            <mxPoint x="760" y="1040" as="sourcePoint" />
            <mxPoint x="760" y="360" as="targetPoint" />
          </mxGeometry>
        </mxCell>
        <mxCell id="IKH_ZbC5_HJtovpVhx3s-35" value="" style="endArrow=none;dashed=1;html=1;dashPattern=1 3;strokeWidth=2;rounded=0;exitX=1;exitY=0.5;exitDx=0;exitDy=0;" edge="1" parent="1" source="IKH_ZbC5_HJtovpVhx3s-30">
          <mxGeometry width="50" height="50" relative="1" as="geometry">
            <mxPoint x="350" y="870" as="sourcePoint" />
            <mxPoint x="440" y="980" as="targetPoint" />
          </mxGeometry>
        </mxCell>
        <mxCell id="IKH_ZbC5_HJtovpVhx3s-39" style="edgeStyle=orthogonalEdgeStyle;rounded=0;orthogonalLoop=1;jettySize=auto;html=1;exitX=0.5;exitY=0;exitDx=0;exitDy=0;entryX=0.5;entryY=1;entryDx=0;entryDy=0;" edge="1" parent="1" source="IKH_ZbC5_HJtovpVhx3s-36" target="IKH_ZbC5_HJtovpVhx3s-37">
          <mxGeometry relative="1" as="geometry" />
        </mxCell>
        <mxCell id="IKH_ZbC5_HJtovpVhx3s-36" value="Đổi trả hàng" style="rounded=1;whiteSpace=wrap;html=1;" vertex="1" parent="1">
          <mxGeometry x="440" y="960" width="120" height="40" as="geometry" />
        </mxCell>
        <mxCell id="IKH_ZbC5_HJtovpVhx3s-37" value="Gửi phản hồi và góp ý" style="rounded=1;whiteSpace=wrap;html=1;" vertex="1" parent="1">
          <mxGeometry x="440" y="880" width="120" height="40" as="geometry" />
        </mxCell>
        <mxCell id="IKH_ZbC5_HJtovpVhx3s-40" value="Yêu cầu bảo hành" style="rounded=1;whiteSpace=wrap;html=1;" vertex="1" parent="1">
          <mxGeometry x="280" y="800" width="120" height="40" as="geometry" />
        </mxCell>
        <mxCell id="IKH_ZbC5_HJtovpVhx3s-42" value="Xem lịch sử mua hàng" style="rounded=1;whiteSpace=wrap;html=1;" vertex="1" parent="1">
          <mxGeometry x="280" y="560" width="120" height="40" as="geometry" />
        </mxCell>
        <mxCell id="IKH_ZbC5_HJtovpVhx3s-49" style="edgeStyle=orthogonalEdgeStyle;rounded=0;orthogonalLoop=1;jettySize=auto;html=1;exitX=1;exitY=0.5;exitDx=0;exitDy=0;entryX=0;entryY=0.5;entryDx=0;entryDy=0;" edge="1" parent="1" source="IKH_ZbC5_HJtovpVhx3s-44" target="IKH_ZbC5_HJtovpVhx3s-48">
          <mxGeometry relative="1" as="geometry" />
        </mxCell>
        <mxCell id="IKH_ZbC5_HJtovpVhx3s-44" value="Xem thông tin cá nhân" style="rounded=1;whiteSpace=wrap;html=1;" vertex="1" parent="1">
          <mxGeometry x="280" y="400" width="120" height="40" as="geometry" />
        </mxCell>
        <mxCell id="IKH_ZbC5_HJtovpVhx3s-46" style="edgeStyle=orthogonalEdgeStyle;rounded=0;orthogonalLoop=1;jettySize=auto;html=1;entryX=0.5;entryY=0;entryDx=0;entryDy=0;" edge="1" parent="1" source="IKH_ZbC5_HJtovpVhx3s-45" target="IKH_ZbC5_HJtovpVhx3s-44">
          <mxGeometry relative="1" as="geometry" />
        </mxCell>
        <mxCell id="IKH_ZbC5_HJtovpVhx3s-45" value="Đăng nhập" style="text;html=1;align=center;verticalAlign=middle;resizable=0;points=[];autosize=1;strokeColor=none;fillColor=none;" vertex="1" parent="1">
          <mxGeometry x="300" y="328.08" width="80" height="30" as="geometry" />
        </mxCell>
        <mxCell id="IKH_ZbC5_HJtovpVhx3s-51" style="edgeStyle=orthogonalEdgeStyle;rounded=0;orthogonalLoop=1;jettySize=auto;html=1;exitX=0.5;exitY=1;exitDx=0;exitDy=0;entryX=0.5;entryY=0;entryDx=0;entryDy=0;" edge="1" parent="1" source="IKH_ZbC5_HJtovpVhx3s-48" target="IKH_ZbC5_HJtovpVhx3s-50">
          <mxGeometry relative="1" as="geometry" />
        </mxCell>
        <mxCell id="IKH_ZbC5_HJtovpVhx3s-56" style="edgeStyle=orthogonalEdgeStyle;rounded=0;orthogonalLoop=1;jettySize=auto;html=1;exitX=1;exitY=0.5;exitDx=0;exitDy=0;entryX=0;entryY=0.5;entryDx=0;entryDy=0;" edge="1" parent="1" source="IKH_ZbC5_HJtovpVhx3s-48" target="IKH_ZbC5_HJtovpVhx3s-54">
          <mxGeometry relative="1" as="geometry" />
        </mxCell>
        <mxCell id="IKH_ZbC5_HJtovpVhx3s-48" value="Thay đổi mật khẩu" style="rounded=1;whiteSpace=wrap;html=1;" vertex="1" parent="1">
          <mxGeometry x="440" y="400" width="120" height="40" as="geometry" />
        </mxCell>
        <mxCell id="IKH_ZbC5_HJtovpVhx3s-53" style="edgeStyle=orthogonalEdgeStyle;rounded=0;orthogonalLoop=1;jettySize=auto;html=1;exitX=0.5;exitY=1;exitDx=0;exitDy=0;entryX=0.5;entryY=0;entryDx=0;entryDy=0;" edge="1" parent="1" source="IKH_ZbC5_HJtovpVhx3s-50" target="IKH_ZbC5_HJtovpVhx3s-52">
          <mxGeometry relative="1" as="geometry" />
        </mxCell>
        <mxCell id="IKH_ZbC5_HJtovpVhx3s-50" value="Cập nhật thông tin cá nhân" style="rounded=1;whiteSpace=wrap;html=1;" vertex="1" parent="1">
          <mxGeometry x="440" y="480" width="120" height="40" as="geometry" />
        </mxCell>
        <mxCell id="IKH_ZbC5_HJtovpVhx3s-52" value="Đăng xuất" style="rounded=1;whiteSpace=wrap;html=1;" vertex="1" parent="1">
          <mxGeometry x="440" y="560" width="120" height="40" as="geometry" />
        </mxCell>
        <mxCell id="IKH_ZbC5_HJtovpVhx3s-54" value="Quên mật khẩu" style="rounded=1;whiteSpace=wrap;html=1;" vertex="1" parent="1">
          <mxGeometry x="600" y="400" width="120" height="40" as="geometry" />
        </mxCell>
        <mxCell id="IKH_ZbC5_HJtovpVhx3s-57" value="Đăng ký" style="text;html=1;align=center;verticalAlign=middle;resizable=0;points=[];autosize=1;strokeColor=none;fillColor=none;" vertex="1" parent="1">
          <mxGeometry x="600" y="330" width="70" height="30" as="geometry" />
        </mxCell>
        <mxCell id="IKH_ZbC5_HJtovpVhx3s-59" value="Nhân viên bán hàng" style="rounded=1;whiteSpace=wrap;html=1;fontSize=16;" vertex="1" parent="1">
          <mxGeometry x="880" y="280" width="120" height="40" as="geometry" />
        </mxCell>
        <mxCell id="IKH_ZbC5_HJtovpVhx3s-60" value="" style="endArrow=none;dashed=1;html=1;rounded=0;fontSize=12;startSize=8;endSize=8;curved=1;entryX=0.25;entryY=1;entryDx=0;entryDy=0;" edge="1" parent="1" target="IKH_ZbC5_HJtovpVhx3s-59">
          <mxGeometry width="50" height="50" relative="1" as="geometry">
            <mxPoint x="910" y="960" as="sourcePoint" />
            <mxPoint x="910" y="620" as="targetPoint" />
          </mxGeometry>
        </mxCell>
        <mxCell id="IKH_ZbC5_HJtovpVhx3s-61" value="" style="endArrow=none;dashed=1;html=1;rounded=0;fontSize=12;startSize=8;endSize=8;curved=1;entryX=0.25;entryY=1;entryDx=0;entryDy=0;" edge="1" parent="1">
          <mxGeometry width="50" height="50" relative="1" as="geometry">
            <mxPoint x="920" y="360" as="sourcePoint" />
            <mxPoint x="920" y="320" as="targetPoint" />
          </mxGeometry>
        </mxCell>
        <mxCell id="IKH_ZbC5_HJtovpVhx3s-62" value="" style="endArrow=none;dashed=1;html=1;dashPattern=1 3;strokeWidth=2;rounded=0;fontSize=12;startSize=8;endSize=8;curved=1;" edge="1" parent="1">
          <mxGeometry width="50" height="50" relative="1" as="geometry">
            <mxPoint x="920" y="360" as="sourcePoint" />
            <mxPoint x="1280" y="360" as="targetPoint" />
          </mxGeometry>
        </mxCell>
        <mxCell id="IKH_ZbC5_HJtovpVhx3s-66" style="edgeStyle=none;curved=1;rounded=0;orthogonalLoop=1;jettySize=auto;html=1;entryX=0.5;entryY=0;entryDx=0;entryDy=0;fontSize=12;startSize=8;endSize=8;exitX=0.375;exitY=1.064;exitDx=0;exitDy=0;exitPerimeter=0;" edge="1" parent="1" source="IKH_ZbC5_HJtovpVhx3s-63" target="IKH_ZbC5_HJtovpVhx3s-64">
          <mxGeometry relative="1" as="geometry" />
        </mxCell>
        <mxCell id="IKH_ZbC5_HJtovpVhx3s-63" value="Quản lý nhập hàng" style="text;html=1;align=center;verticalAlign=middle;resizable=0;points=[];autosize=1;strokeColor=none;fillColor=none;fontSize=16;" vertex="1" parent="1">
          <mxGeometry x="920" y="328.08" width="160" height="30" as="geometry" />
        </mxCell>
        <mxCell id="IKH_ZbC5_HJtovpVhx3s-67" style="edgeStyle=none;curved=1;rounded=0;orthogonalLoop=1;jettySize=auto;html=1;exitX=0.5;exitY=1;exitDx=0;exitDy=0;entryX=0.5;entryY=0;entryDx=0;entryDy=0;fontSize=12;startSize=8;endSize=8;" edge="1" parent="1" source="IKH_ZbC5_HJtovpVhx3s-64" target="IKH_ZbC5_HJtovpVhx3s-65">
          <mxGeometry relative="1" as="geometry" />
        </mxCell>
        <mxCell id="IKH_ZbC5_HJtovpVhx3s-64" value="Tạo phiếu nhập hàng" style="rounded=1;whiteSpace=wrap;html=1;fontSize=16;" vertex="1" parent="1">
          <mxGeometry x="920" y="400" width="120" height="40" as="geometry" />
        </mxCell>
        <mxCell id="IKH_ZbC5_HJtovpVhx3s-69" style="edgeStyle=none;curved=1;rounded=0;orthogonalLoop=1;jettySize=auto;html=1;exitX=0.5;exitY=1;exitDx=0;exitDy=0;entryX=0.5;entryY=0;entryDx=0;entryDy=0;fontSize=12;startSize=8;endSize=8;" edge="1" parent="1" source="IKH_ZbC5_HJtovpVhx3s-65" target="IKH_ZbC5_HJtovpVhx3s-68">
          <mxGeometry relative="1" as="geometry" />
        </mxCell>
        <mxCell id="IKH_ZbC5_HJtovpVhx3s-65" value="Nhập hàng" style="rounded=1;whiteSpace=wrap;html=1;fontSize=16;" vertex="1" parent="1">
          <mxGeometry x="920" y="480" width="120" height="40" as="geometry" />
        </mxCell>
        <mxCell id="IKH_ZbC5_HJtovpVhx3s-71" style="edgeStyle=none;curved=1;rounded=0;orthogonalLoop=1;jettySize=auto;html=1;exitX=0.5;exitY=1;exitDx=0;exitDy=0;entryX=0.5;entryY=0;entryDx=0;entryDy=0;fontSize=12;startSize=8;endSize=8;" edge="1" parent="1" source="IKH_ZbC5_HJtovpVhx3s-68" target="IKH_ZbC5_HJtovpVhx3s-70">
          <mxGeometry relative="1" as="geometry" />
        </mxCell>
        <mxCell id="IKH_ZbC5_HJtovpVhx3s-68" value="Kiểm kê hàng" style="rounded=1;whiteSpace=wrap;html=1;fontSize=16;" vertex="1" parent="1">
          <mxGeometry x="920" y="560" width="120" height="40" as="geometry" />
        </mxCell>
        <mxCell id="IKH_ZbC5_HJtovpVhx3s-73" style="edgeStyle=none;curved=1;rounded=0;orthogonalLoop=1;jettySize=auto;html=1;exitX=0.5;exitY=1;exitDx=0;exitDy=0;entryX=0.5;entryY=0;entryDx=0;entryDy=0;fontSize=12;startSize=8;endSize=8;" edge="1" parent="1" source="IKH_ZbC5_HJtovpVhx3s-70" target="IKH_ZbC5_HJtovpVhx3s-72">
          <mxGeometry relative="1" as="geometry" />
        </mxCell>
        <mxCell id="IKH_ZbC5_HJtovpVhx3s-70" value="Trả hàng" style="rounded=1;whiteSpace=wrap;html=1;fontSize=16;" vertex="1" parent="1">
          <mxGeometry x="920" y="640" width="120" height="40" as="geometry" />
        </mxCell>
        <mxCell id="IKH_ZbC5_HJtovpVhx3s-75" style="edgeStyle=none;curved=1;rounded=0;orthogonalLoop=1;jettySize=auto;html=1;exitX=0.5;exitY=1;exitDx=0;exitDy=0;entryX=0.5;entryY=0;entryDx=0;entryDy=0;fontSize=12;startSize=8;endSize=8;" edge="1" parent="1" source="IKH_ZbC5_HJtovpVhx3s-72" target="IKH_ZbC5_HJtovpVhx3s-74">
          <mxGeometry relative="1" as="geometry" />
        </mxCell>
        <mxCell id="IKH_ZbC5_HJtovpVhx3s-72" value="Quản lý xuất hàng" style="rounded=1;whiteSpace=wrap;html=1;fontSize=16;" vertex="1" parent="1">
          <mxGeometry x="920" y="720" width="120" height="40" as="geometry" />
        </mxCell>
        <mxCell id="IKH_ZbC5_HJtovpVhx3s-77" style="edgeStyle=none;curved=1;rounded=0;orthogonalLoop=1;jettySize=auto;html=1;exitX=0.5;exitY=1;exitDx=0;exitDy=0;entryX=0.5;entryY=0;entryDx=0;entryDy=0;fontSize=12;startSize=8;endSize=8;" edge="1" parent="1" source="IKH_ZbC5_HJtovpVhx3s-74" target="IKH_ZbC5_HJtovpVhx3s-76">
          <mxGeometry relative="1" as="geometry" />
        </mxCell>
        <mxCell id="IKH_ZbC5_HJtovpVhx3s-74" value="Tạo phiếu xuất hàng" style="rounded=1;whiteSpace=wrap;html=1;fontSize=16;" vertex="1" parent="1">
          <mxGeometry x="920" y="800" width="120" height="40" as="geometry" />
        </mxCell>
        <mxCell id="IKH_ZbC5_HJtovpVhx3s-76" value="Xuất hàng" style="rounded=1;whiteSpace=wrap;html=1;fontSize=16;" vertex="1" parent="1">
          <mxGeometry x="920" y="880" width="120" height="40" as="geometry" />
        </mxCell>
        <mxCell id="IKH_ZbC5_HJtovpVhx3s-81" style="edgeStyle=none;curved=1;rounded=0;orthogonalLoop=1;jettySize=auto;html=1;entryX=0.5;entryY=0;entryDx=0;entryDy=0;fontSize=12;startSize=8;endSize=8;" edge="1" parent="1" source="IKH_ZbC5_HJtovpVhx3s-78" target="IKH_ZbC5_HJtovpVhx3s-80">
          <mxGeometry relative="1" as="geometry" />
        </mxCell>
        <mxCell id="IKH_ZbC5_HJtovpVhx3s-78" value="Quản lý đơn hàng" style="text;html=1;align=center;verticalAlign=middle;resizable=0;points=[];autosize=1;strokeColor=none;fillColor=none;fontSize=16;" vertex="1" parent="1">
          <mxGeometry x="1106" y="330" width="150" height="30" as="geometry" />
        </mxCell>
        <mxCell id="IKH_ZbC5_HJtovpVhx3s-83" style="edgeStyle=none;curved=1;rounded=0;orthogonalLoop=1;jettySize=auto;html=1;exitX=0.5;exitY=1;exitDx=0;exitDy=0;entryX=0.5;entryY=0;entryDx=0;entryDy=0;fontSize=12;startSize=8;endSize=8;" edge="1" parent="1" source="IKH_ZbC5_HJtovpVhx3s-80" target="IKH_ZbC5_HJtovpVhx3s-82">
          <mxGeometry relative="1" as="geometry" />
        </mxCell>
        <mxCell id="IKH_ZbC5_HJtovpVhx3s-80" value="Tạo phiếu nhập hàng" style="rounded=1;whiteSpace=wrap;html=1;fontSize=16;" vertex="1" parent="1">
          <mxGeometry x="1121" y="400" width="120" height="40" as="geometry" />
        </mxCell>
        <mxCell id="IKH_ZbC5_HJtovpVhx3s-85" style="edgeStyle=none;curved=1;rounded=0;orthogonalLoop=1;jettySize=auto;html=1;exitX=0.5;exitY=1;exitDx=0;exitDy=0;entryX=0.5;entryY=0;entryDx=0;entryDy=0;fontSize=12;startSize=8;endSize=8;" edge="1" parent="1" source="IKH_ZbC5_HJtovpVhx3s-82" target="IKH_ZbC5_HJtovpVhx3s-84">
          <mxGeometry relative="1" as="geometry" />
        </mxCell>
        <mxCell id="IKH_ZbC5_HJtovpVhx3s-82" value="Xem danh sách đơn hàng" style="rounded=1;whiteSpace=wrap;html=1;fontSize=16;" vertex="1" parent="1">
          <mxGeometry x="1121" y="480" width="120" height="40" as="geometry" />
        </mxCell>
        <mxCell id="IKH_ZbC5_HJtovpVhx3s-87" style="edgeStyle=none;curved=1;rounded=0;orthogonalLoop=1;jettySize=auto;html=1;exitX=0.5;exitY=1;exitDx=0;exitDy=0;entryX=0.5;entryY=0;entryDx=0;entryDy=0;fontSize=12;startSize=8;endSize=8;" edge="1" parent="1" source="IKH_ZbC5_HJtovpVhx3s-84" target="IKH_ZbC5_HJtovpVhx3s-86">
          <mxGeometry relative="1" as="geometry" />
        </mxCell>
        <mxCell id="IKH_ZbC5_HJtovpVhx3s-84" value="Xem chi tiết đơn hàng" style="rounded=1;whiteSpace=wrap;html=1;fontSize=16;" vertex="1" parent="1">
          <mxGeometry x="1121" y="560" width="120" height="40" as="geometry" />
        </mxCell>
        <mxCell id="IKH_ZbC5_HJtovpVhx3s-86" value="Xác nhận đơn hàng" style="rounded=1;whiteSpace=wrap;html=1;fontSize=16;" vertex="1" parent="1">
          <mxGeometry x="1121" y="640" width="120" height="40" as="geometry" />
        </mxCell>
        <mxCell id="IKH_ZbC5_HJtovpVhx3s-88" value="" style="endArrow=none;dashed=1;html=1;rounded=0;fontSize=12;startSize=8;endSize=8;curved=1;entryX=0.25;entryY=1;entryDx=0;entryDy=0;" edge="1" parent="1">
          <mxGeometry width="50" height="50" relative="1" as="geometry">
            <mxPoint x="1280" y="960" as="sourcePoint" />
            <mxPoint x="1280" y="358.08" as="targetPoint" />
          </mxGeometry>
        </mxCell>
        <mxCell id="IKH_ZbC5_HJtovpVhx3s-89" value="" style="endArrow=none;dashed=1;html=1;rounded=0;fontSize=12;startSize=8;endSize=8;curved=1;" edge="1" parent="1">
          <mxGeometry width="50" height="50" relative="1" as="geometry">
            <mxPoint x="910" y="960" as="sourcePoint" />
            <mxPoint x="1280" y="960" as="targetPoint" />
          </mxGeometry>
        </mxCell>
      </root>
    </mxGraphModel>
  </diagram>
</mxfile>
